<?xml version="1.0" encoding="UTF-8" standalone="no"?>
<!-- Created with Inkscape (http://www.inkscape.org/) -->

<svg
   width="1708"
   height="512"
   viewBox="0 0 451.90944 135.46667"
   version="1.1"
   id="svg1"
   xml:space="preserve"
   xmlns:xlink="http://www.w3.org/1999/xlink"
   xmlns="http://www.w3.org/2000/svg"
   xmlns:svg="http://www.w3.org/2000/svg"><defs
     id="defs1"><filter
       id="blur_belly_shadow_left"
       x="-0.049918751"
       y="-0.045849254"
       width="1.0998375"
       height="1.0916985"><feGaussianBlur
         stdDeviation="0.64 0.55"
         id="feGaussianBlur61" /></filter><filter
       id="blur_belly_shadow_right"
       x="-0.050747188"
       y="-0.073202616"
       width="1.1014944"
       height="1.1464052"><feGaussianBlur
         stdDeviation="0.98"
         id="feGaussianBlur62" /></filter><filter
       id="blur_belly_shadow_middle"
       x="-0.087319423"
       y="-0.081681683"
       width="1.1746388"
       height="1.1633634"><feGaussianBlur
         stdDeviation="0.68"
         id="feGaussianBlur63" /></filter><filter
       id="blur_belly_shadow_lower"
       x="-0.81953784"
       width="2.6390757"
       y="-0.057993427"
       height="1.1159869"><feGaussianBlur
         stdDeviation="1.25"
         id="feGaussianBlur64" /></filter><filter
       id="blur_belly_glare"
       x="-0.49197012"
       width="1.9839402"
       y="-0.59291106"
       height="2.1858221"><feGaussianBlur
         stdDeviation="1.78 2.19"
         id="feGaussianBlur65" /></filter><filter
       id="blur_head_glare"
       x="-0.29258274"
       width="1.5851655"
       y="-0.30859164"
       height="1.6171833"><feGaussianBlur
         stdDeviation="1.73"
         id="feGaussianBlur66" /></filter><filter
       id="blur_neck_glare"
       x="-0.17840844"
       width="1.3568169"
       y="-0.1601733"
       height="1.3203466"><feGaussianBlur
         stdDeviation="0.78"
         id="feGaussianBlur67" /></filter><filter
       id="blur_wing_left_glare"
       x="-0.1014502"
       width="1.2029004"
       y="-0.042861973"
       height="1.0857239"><feGaussianBlur
         stdDeviation="0.98"
         id="feGaussianBlur68" /></filter><filter
       id="blur_wing_right_glare"
       x="-0.11789708"
       width="1.2357942"
       y="-0.040211942"
       height="1.0804239"><feGaussianBlur
         stdDeviation="1.19 1.17"
         id="feGaussianBlur69" /></filter><filter
       id="blur_foot_left_layer_1"
       x="-0.10746297"
       width="1.2149259"
       y="-0.1084514"
       height="1.2169028"><feGaussianBlur
         stdDeviation="3.38"
         id="feGaussianBlur70" /></filter><filter
       id="blur_foot_left_layer_2"
       x="-0.075378264"
       y="-0.069657499"
       width="1.1507565"
       height="1.139315"><feGaussianBlur
         stdDeviation="2.1 2.06"
         id="feGaussianBlur71" /></filter><filter
       id="blur_foot_left_glare"
       x="-0.033862433"
       y="-0.018667963"
       width="1.0677249"
       height="1.0373359"><feGaussianBlur
         stdDeviation="0.32"
         id="feGaussianBlur72" /></filter><filter
       id="blur_foot_right_shadow"
       x="-0.076044024"
       y="-0.068073295"
       width="1.152088"
       height="1.1361466"><feGaussianBlur
         stdDeviation="1.95 1.9"
         id="feGaussianBlur73" /></filter><filter
       id="blur_foot_right_layer_1"
       x="-0.14509234"
       width="1.2901847"
       y="-0.14307408"
       height="1.2861482"><feGaussianBlur
         stdDeviation="4.12"
         id="feGaussianBlur74" /></filter><filter
       id="blur_foot_right_layer_2"
       x="-0.11510966"
       width="1.2302193"
       y="-0.12497624"
       height="1.2499525"><feGaussianBlur
         stdDeviation="3.12 3.37"
         id="feGaussianBlur75" /></filter><filter
       id="blur_foot_right_glare"
       x="-0.020750738"
       width="1.0415015"
       y="-0.12827013"
       height="1.2565403"><feGaussianBlur
         stdDeviation="0.41"
         id="feGaussianBlur76" /></filter><filter
       id="blur_wing_tip_right_shadow_lower"
       x="-0.20043875"
       width="1.4008775"
       y="-0.23394803"
       height="1.4678961"><feGaussianBlur
         stdDeviation="2.45"
         id="feGaussianBlur77" /></filter><filter
       id="blur_wing_tip_right_shadow_upper"
       x="-0.091629141"
       width="1.1832583"
       y="-0.10698003"
       height="1.2139601"><feGaussianBlur
         stdDeviation="1.12 0.81"
         id="feGaussianBlur78" /></filter><filter
       id="blur_wing_tip_right_glare"
       x="-0.070171062"
       width="1.1403421"
       y="-0.14997803"
       height="1.2999561"><feGaussianBlur
         stdDeviation="0.88"
         id="feGaussianBlur79" /></filter><filter
       id="blur_pupil_left_glare"
       x="-0.23332936"
       width="1.4666587"
       y="-0.14543877"
       height="1.2908775"><feGaussianBlur
         stdDeviation="0.44"
         id="feGaussianBlur80" /></filter><filter
       id="blur_eyebrow_left"
       x="-0.023848306"
       y="-0.026522859"
       width="1.0476966"
       height="1.0530457"><feGaussianBlur
         stdDeviation="0.12"
         id="feGaussianBlur81" /></filter><filter
       id="blur_pupil_right_glare"
       x="-0.17958931"
       width="1.3591786"
       y="-0.18232284"
       height="1.3646457"><feGaussianBlur
         stdDeviation="0.45"
         id="feGaussianBlur82" /></filter><filter
       id="blur_eyebrow_right"
       x="-0.023600604"
       y="-0.02557377"
       width="1.0472012"
       height="1.0511475"><feGaussianBlur
         stdDeviation="0.13"
         id="feGaussianBlur83" /></filter><filter
       id="blur_beak_shadow_lower"
       x="-0.076201891"
       width="1.1524038"
       y="-0.12887719"
       height="1.2577544"><feGaussianBlur
         stdDeviation="1.75"
         id="feGaussianBlur84" /></filter><filter
       id="blur_beak_shadow_upper"
       x="-0.036392431"
       y="-0.07408861"
       width="1.0727849"
       height="1.1481772"><feGaussianBlur
         stdDeviation="0.8 0.74"
         id="feGaussianBlur85" /></filter><filter
       id="blur_mandible_lower_glare"
       x="-0.15436869"
       width="1.3087374"
       y="-0.21067211"
       height="1.4213442"><feGaussianBlur
         stdDeviation="0.77"
         id="feGaussianBlur86" /></filter><filter
       id="blur_mandible_upper_shadow"
       x="-0.034221465"
       y="-0.078978968"
       width="1.0684429"
       height="1.1579579"><feGaussianBlur
         stdDeviation="0.65"
         id="feGaussianBlur87" /></filter><filter
       id="blur_mandible_upper_glare"
       x="-0.16064714"
       width="1.3212943"
       y="-0.13003773"
       height="1.2600755"><feGaussianBlur
         stdDeviation="0.73"
         id="feGaussianBlur88" /></filter><filter
       id="blur_naris_left"
       x="-0.12244099"
       width="1.244882"
       y="-0.11124302"
       height="1.222486"><feGaussianBlur
         stdDeviation="0.1"
         id="feGaussianBlur89" /></filter><filter
       id="blur_naris_right"
       x="-0.049122258"
       y="-0.093498015"
       width="1.0982445"
       height="1.186996"><feGaussianBlur
         stdDeviation="0.1"
         id="feGaussianBlur90" /></filter><filter
       id="blur_beak_corner"
       x="-0.11091169"
       width="1.2218234"
       y="-0.090640126"
       height="1.1812803"><feGaussianBlur
         stdDeviation="0.23"
         id="feGaussianBlur91" /></filter><clipPath
       id="clip_body"><use
         href="#body_base"
         xlink:href="#body_base"
         id="use91" /></clipPath><clipPath
       id="clip_wing_left"><use
         href="#wing_left_base"
         xlink:href="#wing_left_base"
         id="use92" /></clipPath><clipPath
       id="clip_wing_right"><use
         href="#wing_right_base"
         xlink:href="#wing_right_base"
         id="use93" /></clipPath><clipPath
       id="clip_foot_left"><use
         href="#foot_left_base"
         xlink:href="#foot_left_base"
         id="use94" /></clipPath><clipPath
       id="clip_foot_right"><use
         href="#foot_right_base"
         xlink:href="#foot_right_base"
         id="use95" /></clipPath><clipPath
       id="clip_wing_tip_right"><use
         href="#wing_tip_right_base"
         xlink:href="#wing_tip_right_base"
         id="use96" /></clipPath><clipPath
       id="clip_eye_left"><use
         href="#eyeball_left"
         xlink:href="#eyeball_left"
         id="use97" /></clipPath><clipPath
       id="clip_pupil_left"><use
         href="#pupil_left_base"
         xlink:href="#pupil_left_base"
         id="use98" /></clipPath><clipPath
       id="clip_eye_right"><use
         href="#eyeball_right"
         xlink:href="#eyeball_right"
         id="use99" /></clipPath><clipPath
       id="clip_pupil_right"><use
         href="#pupil_right_base"
         xlink:href="#pupil_right_base"
         id="use100" /></clipPath><clipPath
       id="clip_mandible_lower"><use
         href="#mandible_lower_base"
         xlink:href="#mandible_lower_base"
         id="use101" /></clipPath><clipPath
       id="clip_mandible_upper"><use
         href="#mandible_upper_base"
         xlink:href="#mandible_upper_base"
         id="use102" /></clipPath><clipPath
       id="clip_beak"><use
         href="#mandible_lower_base"
         xlink:href="#mandible_lower_base"
         id="use103" /><use
         href="#mandible_upper_base"
         xlink:href="#mandible_upper_base"
         id="use104" /></clipPath><path
       id="path_wing_tip_right_glare"
       d="m 168.89,171.07 c -0.47,0.03 -0.93,0.08 -1.4,0.17 -2.99,0.53 -5.73,2.42 -7.27,5.03 -1.09,1.85 -1.58,4.03 -1.43,6.17 0.07,-1.5 0.46,-2.97 1.19,-4.28 1.23,-2.23 3.47,-3.91 5.98,-4.37 1.54,-0.28 3.13,-0.11 4.68,0.08 1.5,0.19 3,0.39 4.47,0.7 2.28,0.5 4.53,1.26 6.44,2.59 0.44,0.31 0.86,0.66 1.21,1.08 0.35,0.41 0.62,0.89 0.73,1.42 0.15,0.78 -0.07,1.6 -0.46,2.29 -0.39,0.7 -0.92,1.3 -1.48,1.86 -0.46,0.46 -0.94,0.89 -1.43,1.32 2.21,-0.43 4.44,-1.03 6.28,-2.31 0.77,-0.55 1.48,-1.2 1.94,-2.02 0.46,-0.83 0.65,-1.83 0.43,-2.75 -0.16,-0.62 -0.5,-1.19 -0.92,-1.67 -0.42,-0.48 -0.93,-0.87 -1.45,-1.24 -2.31,-1.62 -5.01,-2.65 -7.81,-2.99 -1.8,-0.33 -3.61,-0.61 -5.42,-0.83 -1.41,-0.18 -2.86,-0.33 -4.28,-0.25 z" /><filter
       style="color-interpolation-filters:sRGB"
       id="filter236"
       x="-0.00011111111"
       y="-9.3749998e-05"
       width="1.0002222"
       height="1.0001875"><feFlood
         flood-opacity="1"
         flood-color="rgb(0,0,0)"
         result="flood"
         id="feFlood236" /><feComposite
         in="flood"
         in2="SourceGraphic"
         operator="in"
         result="composite"
         id="feComposite236" /><feGaussianBlur
         stdDeviation="0.01"
         id="feGaussianBlur236" /></filter></defs><g
     id="layer1"><path
       id="rect1"
       style="fill:#000000;stroke-width:0.264583"
       d="M 27.370422,0 C 12.207116,0 0,12.207116 0,27.370422 v 80.725818 c 0,15.16331 12.207116,27.37043 27.370422,27.37043 h 80.725818 c 15.16331,0 27.37043,-12.20712 27.37043,-27.37043 V 27.370422 C 135.46667,12.207116 123.25955,0 108.09624,0 Z m 5.736084,8.1529907 h 70.161614 c 13.17904,0 23.78924,10.6096833 23.78924,23.7887293 v 70.16213 c 0,13.17904 -10.6102,23.78872 -23.78924,23.78872 H 33.106506 c -13.179045,0 -23.7887285,-10.60968 -23.7887285,-23.78872 V 31.94172 c 0,-13.179046 10.6096835,-23.7887293 23.7887285,-23.7887293 z" /><g
       id="tux"
       transform="matrix(0.32254142,0,0,0.32254142,16.866481,14.15783)"
       style="fill:#ff6600;filter:url(#filter236)"><g
         id="body"
         style="fill:#ff6600"><path
           id="body_base"
           fill="#020204"
           d="m 106.95,0 c -6,0 -12.02,1.18 -17.46,4.12 -5.78,3.11 -10.52,8.09 -13.43,13.97 -2.92,5.88 -4.06,12.16 -4.24,19.08 -0.33,13.14 0.3,26.92 1.29,39.41 0.26,3.8 0.74,6.02 0.25,9.93 -1.62,8.3 -8.88,13.88 -12.76,21.17 -4.27,8.04 -6.07,17.13 -9.29,25.65 -2.95,7.79 -7.09,15.1 -9.88,22.95 -3.91,10.97 -5.08,23.03 -2.5,34.39 1.97,8.66 6.08,16.78 11.62,23.73 -0.8,1.44 -1.58,2.91 -2.4,4.34 -2.57,4.43 -5.71,8.64 -7.17,13.55 -0.73,2.45 -1.02,5.07 -0.55,7.59 0.47,2.52 1.75,4.93 3.75,6.53 1.31,1.04 2.9,1.72 4.53,2.1 1.63,0.37 3.32,0.46 5,0.43 6.37,-0.14 12.55,-2.07 18.71,-3.69 3.66,-0.96 7.34,-1.81 11.03,-2.58 13.14,-2.69 27.8,-1.61 39.99,0.15 4.13,0.63 8.23,1.44 12.29,2.43 6.36,1.54 12.69,3.5 19.23,3.69 1.72,0.05 3.46,-0.03 5.14,-0.4 1.68,-0.38 3.31,-1.06 4.65,-2.13 2.01,-1.6 3.29,-4.02 3.76,-6.54 0.47,-2.52 0.18,-5.15 -0.56,-7.61 -1.48,-4.92 -4.65,-9.11 -7.27,-13.52 -1.04,-1.75 -2,-3.53 -3.03,-5.28 7.9,-8.87 14.26,-19.13 17.94,-30.4 4.01,-12.3 4.75,-25.55 3.06,-38.38 -1.69,-12.83 -5.76,-25.27 -11.11,-37.05 -6.72,-14.76 -12.37,-20.1 -16.47,-33.07 -4.42,-14.02 -0.77,-30.61 -4.06,-43.32 -1.17,-4.32 -3.04,-8.45 -5.45,-12.23 -2.82,-4.43 -6.4,-8.39 -10.65,-11.47 C 124.13,2.62 115.61,0 106.95,0 Z"
           style="fill:#ff6600" /><path
           id="belly"
           fill="#fdfdfb"
           d="m 83.13,74 c -0.9,1.13 -1.48,2.49 -1.84,3.89 -0.35,1.4 -0.48,2.85 -0.54,4.3 -0.11,2.89 0.07,5.83 -0.7,8.62 -0.82,2.98 -2.65,5.57 -4.44,8.08 -3.11,4.36 -6.25,8.84 -7.78,13.97 -0.93,3.1 -1.24,6.39 -0.91,9.62 -3.47,5.1 -6.48,10.53 -8.98,16.18 -3.78,8.57 -6.37,17.69 -7.28,27.01 -1.12,11.41 0.34,23.15 4.85,33.69 3.25,7.63 8.11,14.6 14.38,20.04 3.18,2.76 6.72,5.11 10.5,6.97 13.11,6.45 29.31,6.46 42.2,-0.41 6.74,-3.59 12.43,-8.84 17.91,-14.15 3.3,-3.2 6.59,-6.48 9.11,-10.32 4.85,-7.41 6.54,-16.41 7.59,-25.2 1.83,-15.36 1.89,-31.6 -4.85,-45.53 -2.32,-4.8 -5.41,-9.22 -9.12,-13.05 -0.98,-6.7 -2.93,-13.27 -5.76,-19.42 -2.05,-4.45 -4.54,-8.68 -6.44,-13.18 -0.78,-1.85 -1.46,-3.75 -2.32,-5.56 -0.87,-1.81 -1.93,-3.55 -3.39,-4.94 -1.48,-1.42 -3.33,-2.43 -5.28,-3.07 -1.95,-0.65 -4.01,-0.94 -6.06,-1.04 -4.11,-0.21 -8.22,0.33 -12.33,0.16 -3.27,-0.13 -6.53,-0.7 -9.8,-0.51 -1.63,0.1 -3.26,0.39 -4.78,1.01 -1.52,0.61 -2.92,1.56 -3.94,2.84 z"
           style="fill:#ff6600" /><g
           id="body_self_shadows"
           style="fill:#ff6600"><path
             id="belly_shadow_left"
             opacity="0.25"
             fill="url(#fill_belly_shadow_left)"
             filter="url(#blur_belly_shadow_left)"
             clip-path="url(#clip_body)"
             d="m 68.67,115.18 c 0.87,1.31 -0.55,5.84 19.86,2.94 0,0 -3.59,0.39 -7.12,1.21 -5.49,1.84 -10.27,3.89 -13.97,6.61 -3.65,2.7 -6.33,6.21 -9.68,9.22 0,0 5.43,-9.92 6.78,-12.91 1.36,-2.99 -0.22,-2.85 0.85,-7.25 1.07,-4.4 3.69,-8.63 3.69,-8.63 0,0 -2.14,6.22 -0.41,8.81 z"
             style="fill:#ff6600" /><path
             id="belly_shadow_right"
             opacity="0.42"
             fill="url(#fill_belly_shadow_right)"
             filter="url(#blur_belly_shadow_right)"
             clip-path="url(#clip_body)"
             d="m 134.28,113.99 c -4.16,2.9 -6.6,2.56 -11.64,3.12 -5.05,0.57 -18.7,0.36 -18.7,0.36 0,0 1.97,-0.03 6.36,0.78 4.38,0.82 13.31,1.6 18.34,3.51 5.04,1.92 6.87,2.47 9.93,4.4 4.35,2.75 7.55,7.06 11.71,10.08 0,0 0.2,-4 -1.48,-6.99 -1.68,-2.99 -6.2,-7.7 -7.53,-12.1 -1.32,-4.4 -1.96,-13.04 -1.96,-13.04 0,0 -0.88,6.99 -5.03,9.88 z"
             style="fill:#ff6600" /><path
             id="belly_shadow_middle"
             opacity="0.2"
             fill="url(#fill_belly_shadow_middle)"
             filter="url(#blur_belly_shadow_middle)"
             clip-path="url(#clip_body)"
             d="m 95.17,107.81 c -0.16,1.25 -0.36,2.5 -0.6,3.74 -0.12,0.61 -0.26,1.22 -0.48,1.8 -0.23,0.58 -0.56,1.14 -1.02,1.55 -0.41,0.37 -0.9,0.62 -1.4,0.85 -1.94,0.88 -4.01,1.47 -6.12,1.74 0.84,0.06 1.68,0.14 2.53,0.23 0.53,0.06 1.06,0.12 1.57,0.25 0.52,0.14 1.03,0.34 1.46,0.65 0.47,0.35 0.84,0.82 1.12,1.34 0.55,1.02 0.73,2.2 0.83,3.37 0.13,1.48 0.14,2.98 0.03,4.46 0.1,-0.99 0.31,-1.98 0.62,-2.92 0.57,-1.72 1.47,-3.32 2.69,-4.65 0.49,-0.52 1.02,-1.01 1.6,-1.42 1.79,-1.26 4.07,-1.81 6.24,-1.51 -2.21,0.09 -4.44,-0.6 -6.2,-1.93 -0.9,-0.68 -1.68,-1.52 -2.22,-2.5 -0.84,-1.52 -1.08,-3.37 -0.65,-5.05 z"
             style="fill:#ff6600" /><path
             id="belly_shadow_lower"
             opacity="0.11"
             fill="#000000"
             filter="url(#blur_belly_shadow_lower)"
             clip-path="url(#clip_body)"
             d="m 89.85,137.14 c -1.06,4.03 -1.79,8.15 -2.17,12.31 -0.55,5.87 -0.42,11.78 -0.74,17.67 -0.26,4.99 -0.85,10.04 0.02,14.97 0.41,2.35 1.15,4.64 2.2,6.78 0.16,-0.82 0.29,-1.64 0.36,-2.47 0.37,-4 -0.3,-8.01 -0.53,-12.01 -0.4,-7.02 0.57,-14.04 0.97,-21.06 0.3,-5.39 0.27,-10.8 -0.11,-16.19 z"
             style="fill:#ff6600" /></g><g
           id="body_glare"
           style="fill:#ff6600"><path
             id="belly_glare"
             opacity="0.75"
             fill="#7c7c7c"
             filter="url(#blur_belly_glare)"
             clip-path="url(#clip_body)"
             d="m 160.08,131.23 c 1.03,-0.16 7.34,5.21 6.48,7.21 -0.86,1.99 -2.49,0.79 -3.65,0.8 -1.16,0.02 -4.33,1.46 -4.86,0.55 -0.54,-0.91 1.4,-3.03 2.41,-4.81 0.82,-1.43 -1.4,-3.59 -0.38,-3.75 z"
             style="fill:#ff6600" /><path
             id="head_glare"
             fill="#7c7c7c"
             filter="url(#blur_head_glare)"
             clip-path="url(#clip_body)"
             d="m 121.52,11.12 c -2.21,1.56 -1.25,3.51 -0.3,5.46 0.95,1.96 -2.09,7.59 -2.12,7.83 -0.03,0.24 5.98,-2.85 7.62,-4.87 1.94,-2.37 6.83,3.22 6.56,2.37 0.01,-1.52 -9.55,-12.34 -11.76,-10.79 z"
             style="fill:#ff6600" /><path
             id="neck_glare"
             fill="#838384"
             filter="url(#blur_neck_glare)"
             clip-path="url(#clip_body)"
             d="m 138.27,76.63 c -1.86,1.7 0.88,4.25 2.17,7.24 0.81,1.86 3.04,4.49 5.2,4.07 1.63,-0.32 2.63,-2.66 2.48,-4.3 -0.3,-3.18 -2.98,-3.93 -4.93,-5.02 -1.54,-0.86 -3.61,-3.18 -4.92,-1.99 z"
             style="fill:#ff6600" /></g></g><g
         id="wings"
         style="fill:#ff6600"><g
           id="wing_left"
           style="fill:#ff6600"><path
             id="wing_left_base"
             fill="#020204"
             d="m 63.98,100.91 c -6.1,6.92 -12.37,13.63 -15.81,21.12 -1.71,3.8 -2.51,7.93 -3.68,11.93 -1.32,4.54 -3.12,8.94 -5.14,13.22 -1.87,3.95 -3.93,7.81 -5.98,11.66 -1.5,2.81 -3.02,5.67 -3.54,8.81 -0.41,2.48 -0.18,5.04 0.46,7.47 0.63,2.43 1.64,4.75 2.79,6.98 4.88,9.55 12.21,17.77 20.89,24.07 3.94,2.85 8.15,5.32 12.58,7.35 2.4,1.09 4.92,2.07 7.56,2.11 1.32,0.03 2.65,-0.19 3.86,-0.72 1.2,-0.53 2.28,-1.38 3,-2.49 0.88,-1.36 1.18,-3.05 1,-4.66 -0.18,-1.61 -0.81,-3.15 -1.65,-4.53 -2.06,-3.38 -5.31,-5.83 -8.44,-8.25 -6.76,-5.23 -13.29,-10.76 -19.55,-16.58 -1.76,-1.65 -3.53,-3.34 -4.76,-5.42 -1.2,-2.02 -1.85,-4.32 -2.29,-6.63 -1.21,-6.33 -0.9,-12.99 1.25,-19.07 0.85,-2.38 1.96,-4.65 3.04,-6.93 1.86,-3.95 3.62,-7.98 6.07,-11.6 3.05,-4.51 7.13,-8.33 9.61,-13.17 2.1,-4.09 2.95,-8.68 3.76,-13.2 0.64,-3.54 1.85,-7 2.47,-10.54 -1.21,2.3 -5.11,6.07 -7.5,9.07 z"
             style="fill:#ff6600" /><path
             id="wing_left_glare"
             opacity="0.95"
             fill="#7c7c7c"
             filter="url(#blur_wing_left_glare)"
             clip-path="url(#clip_wing_left)"
             d="m 56.96,126.1 c -2,1.84 -3.73,3.97 -5.13,6.31 -2.3,3.84 -3.65,8.16 -5.33,12.31 -1.24,3.09 -2.69,6.2 -2.86,9.53 -0.09,1.71 0.16,3.42 0.22,5.13 0.06,1.71 -0.1,3.49 -0.94,4.98 -0.7,1.25 -1.87,2.23 -3.22,2.71 1.83,0.61 3.45,1.79 4.6,3.33 0.96,1.3 1.58,2.81 2.41,4.18 0.68,1.12 1.51,2.16 2.54,2.97 1.02,0.82 2.25,1.4 3.54,1.56 1.79,0.23 3.65,-0.36 4.97,-1.58 -1.66,-15.55 -0.14,-31.42 4.44,-46.37 0.29,-0.94 0.59,-1.89 0.67,-2.87 0.07,-0.99 -0.12,-2.03 -0.72,-2.81 -0.31,-0.42 -0.74,-0.75 -1.23,-0.96 -0.48,-0.2 -1.02,-0.28 -1.54,-0.21 -0.52,0.06 -1.03,0.26 -1.45,0.57 -0.42,0.32 -0.76,0.74 -0.97,1.22 z"
             style="fill:#ff6600" /></g><g
           id="wing_right"
           style="fill:#ff6600"><path
             id="wing_right_base"
             fill="#020204"
             d="m 162.76,127.12 c 5.24,4.22 8.57,10.59 9.6,17.24 0.8,5.18 0.28,10.51 -0.89,15.62 -1.17,5.12 -2.97,10.06 -4.77,15 -0.71,1.96 -1.43,3.95 -1.71,6.02 -0.29,2.08 -0.11,4.27 0.89,6.11 1.15,2.11 3.29,3.56 5.59,4.24 2.27,0.68 4.72,0.66 7.02,0.09 2.3,-0.57 6.17,-1.31 8.04,-2.77 4.75,-3.69 5.88,-10.1 7.01,-15.72 1.17,-5.87 0.6,-12.02 -0.43,-17.95 -1.41,-8.09 -3.78,-15.99 -6.79,-23.62 -2.22,-5.62 -5.06,-10.98 -8.44,-15.96 -3.32,-4.89 -8.02,-8.7 -11.5,-13.48 -1.21,-1.66 -2.66,-3.38 -3.84,-5.06 -2.56,-3.62 -1.98,-2.94 -3.57,-5.29 -1.15,-1.7 -2.97,-2.28 -4.88,-3.02 -1.92,-0.74 -4.06,-0.96 -6.04,-0.41 -2.6,0.73 -4.73,2.79 -5.86,5.24 -1.13,2.46 -1.33,5.28 -0.89,7.95 0.57,3.44 2.14,6.64 3.92,9.64 2,3.39 4.32,6.66 7.35,9.18 3.16,2.63 6.98,4.37 10.19,6.95 z"
             style="fill:#ff6600" /><path
             id="wing_right_glare"
             fill="#838384"
             filter="url(#blur_wing_right_glare)"
             clip-path="url(#clip_wing_right)"
             d="m 150.42,118.99 c 0.42,0.4 0.86,0.81 1.31,1.19 3.22,2.63 4.93,5.58 8.2,8.16 5.34,4.22 10.75,11.5 11.8,18.15 0.82,5.19 -0.26,8.01 -1.58,14.12 -1.32,6.12 -5.06,14.78 -7.09,20.68 -0.8,2.35 1.64,1.38 1.32,3.86 -0.16,1.22 -0.18,2.45 -0.03,3.67 0.02,-0.23 0.03,-0.48 0.06,-0.71 0.39,-3.38 1.42,-6.63 2.55,-9.82 2.17,-6.13 4.66,-12.15 6.38,-18.45 1.72,-6.29 1.53,-10.82 0.63,-16.23 -1.13,-6.81 -5.09,-13.09 -10.69,-17.24 -3.97,-2.93 -8.64,-4.81 -12.86,-7.38 z"
             style="fill:#ff6600" /></g></g><g
         id="feet"
         style="fill:#ff6600"><g
           id="foot_left"
           style="fill:#ff6600"><path
             id="foot_left_base"
             fill="url(#fill_foot_left_base)"
             d="m 34.98,175.33 c 1.38,-0.57 2.93,-0.68 4.39,-0.41 1.47,0.27 2.86,0.91 4.09,1.74 2.47,1.68 4.3,4.12 6.05,6.54 4.03,5.54 7.9,11.2 11.42,17.08 2.85,4.78 5.46,9.71 8.76,14.18 2.15,2.93 4.57,5.64 6.73,8.55 2.16,2.92 4.07,6.08 5.03,9.58 1.25,4.55 0.76,9.56 -1.4,13.75 -1.52,2.95 -3.86,5.48 -6.7,7.19 -2.84,1.71 -5.83,2.47 -9.15,2.47 -5.27,0 -10.42,-2.83 -15.32,-4.78 C 38.9,247.24 28.06,246 17.77,242.9 14.61,241.95 11.5,240.82 8.32,239.95 6.9,239.56 5.47,239.22 4.13,238.61 2.79,238.01 1.54,237.1 0.8,235.84 0.23,234.86 0,233.71 0,232.58 c 0,-1.14 0.28,-2.26 0.67,-3.32 0.77,-2.13 2.02,-4.06 2.86,-6.17 1.37,-3.44 1.62,-7.23 1.43,-10.93 -0.18,-3.69 -0.78,-7.36 -1.03,-11.05 -0.12,-1.65 -0.16,-3.32 0.16,-4.95 0.31,-1.62 1.01,-3.21 2.2,-4.35 1.1,-1.06 2.55,-1.69 4.05,-2 1.49,-0.31 3.03,-0.32 4.55,-0.29 1.52,0.03 3.05,0.12 4.57,-0.01 1.52,-0.12 3.05,-0.46 4.37,-1.22 1.26,-0.72 2.29,-1.79 3.14,-2.96 0.85,-1.17 1.54,-2.45 2.25,-3.72 0.7,-1.26 1.43,-2.52 2.36,-3.64 0.92,-1.12 2.06,-2.09 3.4,-2.64 z"
             style="fill:#ff6600" /><path
             id="foot_left_layer_1"
             fill="#d99a03"
             filter="url(#blur_foot_left_layer_1)"
             clip-path="url(#clip_foot_left)"
             d="m 37.16,177.7 c 1.25,-0.5 2.67,-0.56 3.98,-0.26 1.32,0.3 2.55,0.94 3.61,1.77 2.14,1.65 3.62,3.97 5.05,6.26 3.42,5.54 6.76,11.15 9.92,16.86 2.4,4.31 4.68,8.7 7.62,12.65 1.95,2.62 4.18,5.03 6.17,7.62 1.99,2.59 3.76,5.41 4.64,8.56 1.14,4.05 0.68,8.54 -1.28,12.26 -1.42,2.68 -3.58,4.96 -6.2,6.48 -2.61,1.52 -5.67,2.28 -8.69,2.14 -4.82,-0.22 -9.23,-2.63 -13.77,-4.26 -8.71,-3.16 -18.14,-3.59 -27.08,-6.05 -3.2,-0.87 -6.32,-2.03 -9.53,-2.84 -1.43,-0.36 -2.88,-0.66 -4.23,-1.23 -1.35,-0.57 -2.62,-1.45 -3.36,-2.72 -0.54,-0.95 -0.76,-2.06 -0.73,-3.15 0.04,-1.09 0.31,-2.17 0.7,-3.19 0.78,-2.04 2,-3.88 2.78,-5.92 1.19,-3.08 1.34,-6.47 1.12,-9.76 -0.22,-3.29 -0.8,-6.56 -1,-9.85 -0.08,-1.48 -0.1,-2.97 0.2,-4.41 0.3,-1.45 0.93,-2.85 1.98,-3.89 1.14,-1.13 2.7,-1.74 4.29,-1.99 1.58,-0.24 3.19,-0.13 4.78,0.01 1.6,0.14 3.2,0.32 4.8,0.23 1.6,-0.1 3.22,-0.49 4.54,-1.39 1.2,-0.81 2.1,-2 2.79,-3.27 0.69,-1.27 1.18,-2.64 1.71,-3.98 0.52,-1.35 1.09,-2.69 1.91,-3.89 0.82,-1.19 1.93,-2.24 3.28,-2.79 z"
             style="fill:#ff6600" /><path
             id="foot_left_layer_2"
             fill="#f5bd0c"
             filter="url(#blur_foot_left_layer_2)"
             clip-path="url(#clip_foot_left)"
             d="m 35.99,174.57 c 1.22,-0.6 2.65,-0.72 3.98,-0.45 1.33,0.27 2.57,0.92 3.62,1.77 2.09,1.7 3.43,4.13 4.67,6.51 2.84,5.46 5.5,11.04 8.9,16.19 2.48,3.73 5.33,7.2 7.83,10.92 3.39,5.03 6.15,10.57 7.29,16.5 0.76,4 0.74,8.31 -1.18,11.9 -1.27,2.37 -3.32,4.31 -5.75,5.52 -2.42,1.22 -5.21,1.71 -7.92,1.47 -4.27,-0.37 -8.14,-2.47 -12.16,-3.94 -7.13,-2.59 -14.84,-3.22 -22.18,-5.18 -3.09,-0.82 -6.13,-1.89 -9.26,-2.54 -1.39,-0.29 -2.8,-0.5 -4.12,-1 -1.32,-0.5 -2.57,-1.33 -3.25,-2.55 -0.47,-0.86 -0.63,-1.86 -0.56,-2.84 0.07,-0.97 0.36,-1.92 0.74,-2.83 0.77,-1.8 1.9,-3.46 2.49,-5.32 0.88,-2.75 0.52,-5.72 -0.14,-8.53 -0.65,-2.8 -1.6,-5.55 -1.89,-8.41 -0.13,-1.27 -0.13,-2.57 0.17,-3.82 0.29,-1.25 0.88,-2.45 1.81,-3.34 1.2,-1.15 2.88,-1.73 4.56,-1.89 1.67,-0.16 3.35,0.06 5.01,0.3 1.66,0.24 3.34,0.5 5.01,0.42 1.68,-0.07 3.39,-0.51 4.7,-1.54 1.3,-1.02 2.12,-2.53 2.59,-4.09 0.47,-1.57 0.62,-3.2 0.81,-4.82 0.19,-1.62 0.43,-3.26 1.06,-4.77 0.63,-1.51 1.69,-2.9 3.17,-3.64 z"
             style="fill:#ff6600" /><path
             id="foot_left_glare"
             fill="url(#fill_foot_left_glare)"
             filter="url(#blur_foot_left_glare)"
             clip-path="url(#clip_foot_left)"
             d="m 51.2,188.21 c 2.25,4.06 3.62,8.72 5.85,12.82 2.05,3.77 4.38,7.65 6.46,11.12 0.93,1.55 3.09,3.93 5.27,7.62 1.98,3.34 3.98,8.01 5.1,9.58 -0.64,-1.84 -1.96,-6.77 -3.54,-10.28 -1.47,-3.28 -3.19,-5.15 -4.24,-6.92 -2.08,-3.47 -4.33,-6.6 -6.47,-9.91 -2.95,-4.57 -5.2,-9.68 -8.43,-14.03 z"
             style="fill:#ff6600" /></g><g
           id="foot_right"
           style="fill:#ff6600"><path
             id="foot_right_shadow"
             opacity="0.2"
             fill="url(#fill_foot_right_shadow)"
             filter="url(#blur_foot_right_shadow)"
             clip-path="url(#clip_body)"
             d="m 198.7,215.61 c -0.4,1.33 -1.02,2.62 -1.81,3.8 -1.75,2.59 -4.3,4.55 -6.84,6.35 -4.33,3.07 -8.85,5.89 -12.89,9.38 -2.7,2.34 -5.17,4.97 -7.45,7.73 -1.95,2.36 -3.79,4.84 -6.02,6.94 -2.25,2.12 -4.89,3.84 -7.74,4.77 -3.47,1.13 -7.13,1.08 -10.47,0.22 -2.34,-0.6 -4.63,-1.64 -6.08,-3.53 -1.45,-1.89 -1.92,-4.44 -2.09,-6.94 -0.3,-4.42 0.23,-8.93 0.71,-13.42 0.4,-3.73 0.77,-7.46 0.92,-11.18 0.27,-6.77 -0.18,-13.47 -1.09,-20.05 -0.16,-1.11 -0.32,-2.22 -0.23,-3.35 0.09,-1.14 0.47,-2.32 1.27,-3.2 0.74,-0.81 1.77,-1.29 2.79,-1.52 1.02,-0.24 2.06,-0.25 3.09,-0.28 2.43,-0.06 4.86,-0.21 7.25,0.01 1.51,0.13 2.99,0.41 4.49,0.55 2.51,0.24 5.12,0.12 7.64,-0.62 2.71,-0.8 5.29,-2.29 8.05,-2.7 1.13,-0.17 2.26,-0.15 3.36,0.01 1.12,0.15 2.24,0.46 3.1,1.15 0.66,0.52 1.14,1.23 1.51,1.99 0.56,1.14 0.9,2.39 1.1,3.68 0.17,1.14 0.24,2.31 0.53,3.41 0.48,1.81 1.58,3.35 2.89,4.6 1.32,1.25 2.85,2.24 4.39,3.22 1.53,0.97 3.07,1.93 4.7,2.73 0.77,0.38 1.56,0.72 2.29,1.15 0.74,0.44 1.42,0.97 1.91,1.67 0.66,0.95 0.92,2.2 0.72,3.43 z"
             style="fill:#ff6600" /><path
             id="foot_right_base"
             fill="url(#fill_foot_right_base)"
             d="m 213.47,222.92 c -2.26,2.68 -5.4,4.45 -8.53,6.05 -5.33,2.71 -10.86,5.1 -15.87,8.37 -3.36,2.19 -6.46,4.76 -9.36,7.53 -2.48,2.37 -4.83,4.9 -7.61,6.91 -2.81,2.03 -6.05,3.5 -9.48,4.01 -0.95,0.14 -1.9,0.21 -2.86,0.21 -3.24,0 -6.48,-0.78 -9.46,-2.08 -2.7,-1.17 -5.3,-2.86 -6.86,-5.36 -1.56,-2.52 -1.92,-5.59 -1.92,-8.56 -0.01,-5.23 0.96,-10.41 1.87,-15.57 0.76,-4.29 1.48,-8.58 1.95,-12.91 0.85,-7.86 0.84,-15.81 0.28,-23.71 -0.1,-1.32 -0.21,-2.65 -0.01,-3.96 0.2,-1.31 0.74,-2.62 1.74,-3.48 0.93,-0.8 2.17,-1.16 3.4,-1.22 1.22,-0.07 2.44,0.12 3.65,0.3 2.85,0.42 5.73,0.74 8.52,1.48 1.76,0.46 3.48,1.08 5.23,1.56 2.94,0.79 6.01,1.17 9.02,0.82 3.25,-0.38 6.41,-1.6 9.68,-1.52 1.34,0.03 2.67,0.28 3.95,0.69 1.3,0.41 2.59,1 3.55,1.98 0.73,0.74 1.24,1.67 1.62,2.64 0.57,1.44 0.88,2.98 1.01,4.52 0.11,1.37 0.09,2.76 0.35,4.11 0.43,2.21 1.6,4.24 3.04,5.97 1.45,1.74 3.18,3.21 4.91,4.66 1.73,1.45 3.46,2.89 5.32,4.16 0.87,0.6 1.77,1.16 2.6,1.81 0.83,0.66 1.59,1.42 2.11,2.34 0.45,0.81 0.69,1.72 0.69,2.65 0,0.52 -0.07,1.04 -0.23,1.56 -0.45,1.43 -1.28,2.82 -2.3,4.04 z"
             style="fill:#ff6600" /><path
             id="foot_right_layer_1"
             fill="#cd8907"
             filter="url(#blur_foot_right_layer_1)"
             clip-path="url(#clip_foot_right)"
             d="m 213.21,216.12 c -0.53,1.33 -1.28,2.58 -2.22,3.67 -2.07,2.42 -4.93,4.01 -7.78,5.44 -4.88,2.44 -9.92,4.58 -14.5,7.52 -3.06,1.97 -5.9,4.28 -8.55,6.78 -2.26,2.13 -4.41,4.41 -6.95,6.21 -2.57,1.83 -5.53,3.14 -8.65,3.6 -3.8,0.56 -7.72,-0.16 -11.25,-1.67 -2.46,-1.06 -4.84,-2.56 -6.27,-4.83 -1.42,-2.26 -1.75,-5.02 -1.75,-7.69 -0.02,-4.71 0.87,-9.37 1.71,-14 0.7,-3.85 1.36,-7.71 1.78,-11.6 0.76,-7.08 0.73,-14.22 0.25,-21.32 -0.08,-1.19 -0.17,-2.39 0.01,-3.57 0.18,-1.18 0.67,-2.35 1.57,-3.13 0.85,-0.73 1.99,-1.05 3.11,-1.1 1.11,-0.06 2.22,0.12 3.33,0.28 2.61,0.38 5.23,0.67 7.78,1.33 1.61,0.42 3.18,0.98 4.78,1.4 2.68,0.72 5.49,1.06 8.24,0.74 2.97,-0.34 5.85,-1.44 8.83,-1.37 1.23,0.03 2.44,0.26 3.61,0.62 1.19,0.37 2.37,0.9 3.25,1.78 0.66,0.67 1.11,1.51 1.48,2.38 0.53,1.29 0.89,2.67 0.91,4.07 0.03,1.46 -0.28,2.92 -0.09,4.37 0.16,1.17 0.66,2.28 1.3,3.28 0.63,1 1.4,1.91 2.17,2.81 1.48,1.75 2.96,3.53 4.82,4.87 2.11,1.53 4.62,2.43 6.8,3.85 0.65,0.43 1.28,0.91 1.74,1.54 0.78,1.06 0.98,2.5 0.54,3.74 z"
             style="fill:#ff6600" /><path
             id="foot_right_layer_2"
             fill="#f5c021"
             filter="url(#blur_foot_right_layer_2)"
             clip-path="url(#clip_foot_right)"
             d="m 212.91,214.61 c -0.6,1.35 -1.37,2.6 -2.28,3.71 -2.12,2.58 -4.99,4.35 -8,5.49 -4.97,1.88 -10.39,2.13 -15.26,4.27 -2.97,1.3 -5.65,3.26 -8.36,5.12 -2.18,1.49 -4.42,2.94 -6.82,3.98 -2.72,1.19 -5.6,1.85 -8.5,2.32 -1.84,0.29 -3.71,0.51 -5.57,0.41 -1.86,-0.1 -3.72,-0.54 -5.37,-1.49 -1.24,-0.72 -2.36,-1.75 -3.03,-3.1 -0.73,-1.49 -0.86,-3.24 -0.85,-4.94 0.05,-4.5 1.02,-8.96 0.99,-13.47 -0.03,-3.93 -0.81,-7.8 -1.03,-11.72 -0.43,-7.54 1.19,-15.2 -0.24,-22.59 -0.22,-1.19 -0.53,-2.37 -0.52,-3.58 0.01,-0.6 0.1,-1.21 0.31,-1.77 0.22,-0.55 0.56,-1.06 1.01,-1.42 0.39,-0.29 0.84,-0.47 1.31,-0.56 0.46,-0.08 0.94,-0.06 1.41,0.01 0.93,0.15 1.82,0.51 2.73,0.78 2.6,0.78 5.35,0.76 8,1.35 1.66,0.36 3.26,0.97 4.91,1.41 2.75,0.76 5.63,1.08 8.46,0.75 3.04,-0.36 6.01,-1.46 9.07,-1.38 1.26,0.03 2.5,0.26 3.71,0.62 1.21,0.36 2.42,0.87 3.34,1.8 0.65,0.67 1.13,1.52 1.51,2.4 0.57,1.29 0.96,2.69 0.95,4.11 -0.01,0.74 -0.12,1.47 -0.19,2.21 -0.06,0.74 -0.08,1.49 0.09,2.2 0.18,0.72 0.55,1.37 0.97,1.96 0.42,0.59 0.9,1.12 1.34,1.7 1.22,1.61 2.1,3.49 3.05,5.3 0.95,1.81 2.02,3.6 3.53,4.91 2.05,1.77 4.7,2.48 6.99,3.89 0.67,0.41 1.31,0.89 1.78,1.55 0.38,0.52 0.63,1.15 0.73,1.81 0.09,0.65 0.03,1.34 -0.17,1.96 z"
             style="fill:#ff6600" /><path
             id="foot_right_glare"
             fill="url(#fill_foot_right_glare)"
             filter="url(#blur_foot_right_glare)"
             clip-path="url(#clip_foot_right)"
             d="m 148.08,181.58 c 2.82,-0.76 5.22,1.38 7.27,2.99 1.32,1.13 3.24,0.85 4.86,0.9 2.69,-0.09 5.36,0.45 8.05,0.12 5.3,-0.45 10.49,-1.75 15.81,-1.97 2.54,-0.16 5.4,-0.31 7.59,1.17 0.89,0.62 2.2,3.23 3.07,2.25 -0.36,-2.74 -2.39,-5.39 -5.11,-6.12 -2.14,-0.34 -4.3,0.25 -6.46,0.06 -6.39,-0.15 -12.75,-1.34 -19.16,-1 -4.46,0.04 -8.91,-0.17 -13.37,-0.34 -1.75,-0.36 -2.37,1.19 -3.32,1.79 0.25,0.19 0.34,0.25 0.77,0.15 z"
             style="fill:#ff6600" /></g></g><g
         id="wing_tip_right"
         style="fill:#ff6600"><g
           id="wing_tip_right_shadow"
           style="fill:#ff6600"><path
             id="wing_tip_right_shadow_lower"
             opacity="0.35"
             fill="url(#fill_wing_tip_right_shadow_lower)"
             filter="url(#blur_wing_tip_right_shadow_lower)"
             clip-path="url(#clip_foot_right)"
             d="m 185.49,187.61 c -0.48,-0.95 -1.36,-1.66 -2.35,-2.07 -0.98,-0.41 -2.06,-0.55 -3.13,-0.54 -2.13,0.02 -4.25,0.57 -6.38,0.39 -1.79,-0.16 -3.49,-0.83 -5.24,-1.26 -1.81,-0.44 -3.73,-0.61 -5.52,-0.12 -1.92,0.52 -3.61,1.81 -4.67,3.49 -0.94,1.48 -1.38,3.23 -1.52,4.98 -0.14,1.75 0.01,3.5 0.19,5.25 0.12,1.26 0.27,2.52 0.57,3.75 0.31,1.23 0.78,2.43 1.52,3.46 1.07,1.48 2.66,2.54 4.37,3.17 2.8,1.03 5.98,0.98 8.73,-0.15 4.88,-2.12 9.01,-5.92 11.52,-10.6 0.91,-1.68 1.61,-3.47 2.06,-5.31 0.18,-0.74 0.32,-1.49 0.32,-2.25 0.01,-0.75 -0.12,-1.52 -0.47,-2.19 z"
             style="fill:#ff6600" /><path
             id="wing_tip_right_shadow_upper"
             opacity="0.35"
             fill="url(#fill_wing_tip_right_shadow_upper)"
             filter="url(#blur_wing_tip_right_shadow_upper)"
             clip-path="url(#clip_foot_right)"
             d="m 185.49,184.89 c -0.48,-0.69 -1.36,-1.2 -2.35,-1.5 -0.98,-0.3 -2.06,-0.39 -3.13,-0.39 -2.13,0.02 -4.25,0.42 -6.38,0.28 -1.79,-0.11 -3.49,-0.6 -5.24,-0.9 -1.81,-0.32 -3.73,-0.45 -5.52,-0.09 -1.92,0.37 -3.61,1.3 -4.67,2.52 -0.94,1.07 -1.38,2.34 -1.52,3.6 -0.14,1.26 0.01,2.53 0.19,3.79 0.12,0.91 0.27,1.83 0.57,2.72 0.31,0.89 0.78,1.76 1.52,2.5 1.07,1.07 2.66,1.83 4.37,2.29 2.8,0.75 5.98,0.71 8.73,-0.11 4.88,-1.53 9.01,-4.28 11.52,-7.66 0.91,-1.22 1.61,-2.51 2.06,-3.84 0.18,-0.54 0.32,-1.08 0.32,-1.62 0.01,-0.55 -0.12,-1.11 -0.47,-1.59 z"
             style="fill:#ff6600" /></g><path
           id="wing_tip_right_base"
           fill="#020204"
           d="m 189.55,178.72 c -0.35,-0.95 -0.97,-1.79 -1.72,-2.47 -0.75,-0.68 -1.64,-1.2 -2.57,-1.6 -1.86,-0.79 -3.89,-1.09 -5.89,-1.46 -1.87,-0.35 -3.74,-0.78 -5.62,-1.1 -1.96,-0.33 -3.98,-0.55 -5.92,-0.11 -1.69,0.38 -3.26,1.26 -4.54,2.43 -1.28,1.17 -2.28,2.63 -3,4.21 -1.27,2.79 -1.67,5.92 -1.43,8.97 0.18,2.27 0.76,4.61 2.25,6.32 1.21,1.39 2.92,2.26 4.68,2.78 3.04,0.9 6.35,0.85 9.36,-0.13 4.97,-1.67 9.37,-4.98 12.35,-9.29 0.98,-1.43 1.82,-2.98 2.2,-4.66 0.29,-1.28 0.3,-2.66 -0.15,-3.89 z"
           style="fill:#ff6600" /><g
           id="wing_tip_right_glare"
           style="fill:#ff6600"><defs
             id="defs104" /><use
             id="wing_tip_right_glare_1"
             href="#path_wing_tip_right_glare"
             xlink:href="#path_wing_tip_right_glare"
             fill="url(#fill_wing_tip_right_glare_1)"
             filter="url(#blur_wing_tip_right_glare)"
             clip-path="url(#clip_wing_tip_right)"
             style="fill:#ff6600" /><use
             id="wing_tip_right_glare_2"
             href="#path_wing_tip_right_glare"
             xlink:href="#path_wing_tip_right_glare"
             fill="url(#fill_wing_tip_right_glare_2)"
             filter="url(#blur_wing_tip_right_glare)"
             clip-path="url(#clip_wing_tip_right)"
             style="fill:#ff6600" /></g></g><g
         id="face"
         style="fill:#ff6600"><g
           id="eyes"
           style="fill:#ff6600"><g
             id="eye_left"
             style="fill:#ff6600"><path
               id="eyeball_left"
               fill="url(#fill_eyeball_left)"
               d="m 84.45,38.28 c -1.53,0.08 -3,0.79 -4.12,1.84 -1.13,1.05 -1.92,2.43 -2.41,3.88 -0.97,2.92 -0.75,6.08 -0.53,9.15 0.2,2.77 0.41,5.6 1.45,8.18 0.52,1.3 1.25,2.51 2.22,3.51 0.97,0.99 2.2,1.76 3.55,2.09 1.26,0.32 2.62,0.26 3.86,-0.13 1.25,-0.4 2.38,-1.11 3.32,-2.02 1.36,-1.33 2.27,-3.07 2.8,-4.9 0.53,-1.83 0.68,-3.75 0.65,-5.66 -0.04,-2.38 -0.35,-4.77 -1.09,-7.03 -0.75,-2.26 -1.94,-4.4 -3.6,-6.11 -0.8,-0.83 -1.72,-1.55 -2.75,-2.06 -1.04,-0.51 -2.2,-0.8 -3.35,-0.74 z"
               style="fill:#ff6600" /><g
               id="pupil_left"
               style="fill:#ff6600"><path
                 id="pupil_left_base"
                 fill="#020204"
                 d="m 80.75,50.99 c -0.32,1.94 -0.33,3.97 0.33,5.81 0.44,1.22 1.17,2.33 2.05,3.28 0.57,0.62 1.23,1.18 1.99,1.55 0.77,0.37 1.65,0.52 2.48,0.32 0.76,-0.19 1.42,-0.68 1.91,-1.29 0.49,-0.61 0.82,-1.34 1.05,-2.09 0.69,-2.21 0.58,-4.62 -0.11,-6.83 -0.49,-1.61 -1.32,-3.16 -2.6,-4.24 -0.62,-0.52 -1.34,-0.93 -2.12,-1.11 -0.78,-0.19 -1.63,-0.14 -2.36,0.19 -0.81,0.37 -1.44,1.07 -1.85,1.86 -0.41,0.79 -0.62,1.67 -0.77,2.55 z"
                 style="fill:#ff6600" /><path
                 id="pupil_left_glare"
                 fill="url(#fill_pupil_left_glare)"
                 filter="url(#blur_pupil_left_glare)"
                 clip-path="url(#clip_pupil_left)"
                 d="m 84.84,49.59 c 0.21,0.55 0.91,0.75 1.3,1.19 0.37,0.42 0.76,0.87 0.97,1.4 0.39,1.01 -0.39,2.51 0.43,3.23 0.25,0.22 0.77,0.23 1.02,0 0.99,-0.9 0.77,-2.71 0.38,-3.99 -0.36,-1.15 -1.23,-2.25 -2.31,-2.8 -0.5,-0.26 -1.25,-0.47 -1.68,-0.11 -0.27,0.24 -0.24,0.74 -0.11,1.08 z"
                 style="fill:#ff6600" /></g><path
               id="eyelid_left"
               fill="url(#fill_eyelid_left)"
               clip-path="url(#clip_eye_left)"
               d="m 81.14,44.46 c 2.32,-1.38 5.13,-1.7 7.82,-1.45 2.68,0.26 5.27,1.04 7.87,1.75 1.91,0.52 3.84,1 5.63,1.84 1.78,0.84 3.44,2.08 4.43,3.8 0.16,0.27 0.29,0.56 0.46,0.83 0.17,0.27 0.37,0.52 0.62,0.71 0.25,0.19 0.57,0.32 0.88,0.3 0.16,-0.01 0.32,-0.05 0.45,-0.13 0.14,-0.08 0.26,-0.2 0.33,-0.34 0.08,-0.16 0.11,-0.35 0.1,-0.53 -0.01,-0.18 -0.05,-0.36 -0.1,-0.54 -0.65,-2.37 -2.19,-4.38 -3.35,-6.55 -0.7,-1.3 -1.28,-2.66 -1.98,-3.96 -2.43,-4.45 -6.42,-7.94 -10.95,-10.21 -4.53,-2.27 -9.59,-3.36 -14.65,-3.65 -5.86,-0.35 -11.73,0.35 -17.51,1.37 -2.51,0.44 -5.06,0.96 -7.27,2.21 -1.11,0.62 -2.13,1.42 -2.92,2.42 -0.8,0.99 -1.36,2.18 -1.55,3.44 -0.17,1.22 0.01,2.47 0.44,3.62 0.42,1.15 1.08,2.2 1.86,3.15 1.54,1.91 3.53,3.39 5.36,5.03 1.83,1.63 3.52,3.44 5.57,4.79 1.02,0.68 2.13,1.24 3.31,1.57 1.18,0.33 2.44,0.42 3.64,0.17 1.24,-0.25 2.4,-0.86 3.41,-1.64 1.01,-0.77 1.88,-1.7 2.71,-2.66 1.66,-1.93 3.21,-4.04 5.39,-5.34 z"
               style="fill:#ff6600" /><path
               id="eyebrow_left"
               fill="url(#fill_eyebrow_left)"
               filter="url(#blur_eyebrow_left)"
               d="m 90.77,36.57 c 2.16,2.02 3.76,4.52 4.85,7.16 -0.48,-2.91 -1.23,-5.26 -3.13,-7.16 -1.16,-1.09 -2.49,-2.05 -3.98,-2.72 -1.32,-0.59 -2.77,-0.96 -3.61,-0.97 -0.83,-0.02 -1.03,0 -1.2,0.01 -0.18,0.01 -0.31,0.01 0.23,0.08 0.54,0.06 1.75,0.39 3.05,0.97 1.3,0.58 2.62,1.54 3.79,2.63 z"
               style="fill:#ff6600" /></g><g
             id="eye_right"
             style="fill:#ff6600"><path
               id="eyeball_right"
               fill="url(#fill_eyeball_right)"
               d="m 111.61,38.28 c -2.39,1.65 -4.4,3.94 -5.38,6.68 -1.24,3.45 -0.77,7.31 0.43,10.77 1.22,3.55 3.27,6.93 6.36,9.06 1.54,1.07 3.33,1.8 5.19,2.02 1.87,0.22 3.8,-0.09 5.47,-0.95 2.02,-1.06 3.57,-2.91 4.53,-4.98 0.96,-2.08 1.37,-4.37 1.5,-6.66 0.16,-2.9 -0.12,-5.86 -1.08,-8.61 -1.04,-2.99 -2.92,-5.75 -5.58,-7.47 -1.32,-0.86 -2.83,-1.45 -4.4,-1.67 -1.57,-0.22 -3.19,-0.05 -4.67,0.52 -0.84,0.33 -1.62,0.78 -2.37,1.29 z"
               style="fill:#ff6600" /><g
               id="pupil_right"
               style="fill:#ff6600"><path
                 id="pupil_right_base"
                 fill="#020204"
                 d="m 117.14,45.52 c -0.9,0.06 -1.78,0.37 -2.55,0.85 -0.76,0.48 -1.41,1.13 -1.92,1.88 -1.03,1.49 -1.48,3.31 -1.55,5.12 -0.05,1.35 0.1,2.72 0.55,4 0.45,1.28 1.2,2.47 2.25,3.33 1.07,0.89 2.42,1.42 3.81,1.49 1.39,0.06 2.79,-0.34 3.93,-1.13 0.91,-0.63 1.64,-1.5 2.16,-2.48 0.52,-0.97 0.84,-2.05 0.98,-3.15 0.25,-1.93 -0.03,-3.95 -0.93,-5.69 -0.89,-1.74 -2.41,-3.17 -4.24,-3.84 -0.8,-0.29 -1.65,-0.44 -2.49,-0.38 z"
                 style="fill:#ff6600" /><path
                 id="pupil_right_glare"
                 fill="url(#fill_pupil_right_glare)"
                 filter="url(#blur_pupil_right_glare)"
                 clip-path="url(#clip_pupil_right)"
                 d="m 122.71,53.36 c 1,-1 -0.71,-3.65 -2.05,-4.74 -0.97,-0.78 -3.78,-1.61 -3.66,-0.75 0.12,0.85 1.39,1.95 2.23,2.79 1.05,1.03 3,3.18 3.48,2.7 z"
                 style="fill:#ff6600" /></g><path
               id="eyelid_right"
               fill="url(#fill_eyelid_right)"
               clip-path="url(#clip_eye_right)"
               d="m 102.56,47.01 c 2.06,-1.71 4.45,-3.01 7,-3.8 5.25,-1.62 11.2,-0.98 15.84,1.97 1.6,1.01 3.03,2.27 4.52,3.45 1.48,1.17 3.06,2.27 4.85,2.9 0.97,0.34 2,0.54 3.02,0.43 0.92,-0.09 1.81,-0.44 2.57,-0.96 0.76,-0.53 1.4,-1.23 1.88,-2.02 0.96,-1.58 1.27,-3.5 1.1,-5.34 -0.33,-3.69 -2.41,-6.94 -4.15,-10.21 -0.55,-1.02 -1.07,-2.06 -1.73,-3.01 -2.01,-2.93 -5.23,-4.86 -8.6,-5.99 -3.37,-1.13 -6.93,-1.54 -10.46,-1.98 -1.58,-0.2 -3.17,-0.41 -4.74,-0.22 -1.81,0.22 -3.51,0.95 -5.28,1.4 -0.84,0.22 -1.69,0.37 -2.52,0.61 -0.83,0.24 -1.65,0.57 -2.33,1.11 -0.98,0.79 -1.6,1.98 -1.87,3.21 -0.27,1.24 -0.21,2.52 -0.01,3.77 0.39,2.5 1.33,4.93 1.24,7.46 -0.06,1.73 -0.61,3.44 -0.54,5.17 0.02,0.51 0.12,1.55 0.21,2.05 z"
               style="fill:#ff6600" /><path
               id="eyebrow_right"
               fill="url(#fill_eyebrow_right)"
               filter="url(#blur_eyebrow_right)"
               d="m 119.93,31.18 c -0.41,0.52 -0.78,1.08 -1.07,1.7 1.85,0.4 3.61,1.16 5.19,2.21 3.06,2.03 5.38,4.99 7.01,8.29 0.38,-0.42 0.72,-0.87 1.02,-1.37 -1.64,-3.44 -4,-6.55 -7.16,-8.65 -1.52,-1 -3.21,-1.77 -4.99,-2.18 z"
               style="fill:#ff6600" /></g></g><g
           id="beak"
           style="fill:#ff6600"><g
             id="beak_shadow"
             style="fill:#ff6600"><path
               id="beak_shadow_lower"
               fill="#000000"
               fill-opacity="0.258824"
               filter="url(#blur_beak_shadow_lower)"
               clip-path="url(#clip_body)"
               d="m 81.12,89.33 c 1.47,4.26 4.42,7.89 7.92,10.72 1.16,0.95 2.39,1.82 3.76,2.43 1.36,0.62 2.87,0.97 4.36,0.84 1.46,-0.12 2.85,-0.7 4.13,-1.42 1.28,-0.72 2.46,-1.59 3.7,-2.37 2.12,-1.35 4.39,-2.44 6.6,-3.64 2.65,-1.45 5.23,-3.1 7.46,-5.14 1.03,-0.93 1.98,-1.95 3.11,-2.75 1.13,-0.81 2.49,-1.39 3.87,-1.29 1.04,0.07 2.01,0.51 3.03,0.73 0.51,0.11 1.03,0.16 1.55,0.08 0.51,-0.08 1.01,-0.29 1.37,-0.67 0.44,-0.46 0.64,-1.12 0.61,-1.76 -0.02,-0.63 -0.24,-1.25 -0.54,-1.81 -0.59,-1.13 -1.49,-2.1 -1.89,-3.31 -0.36,-1.08 -0.29,-2.24 -0.26,-3.37 0.03,-1.14 0.01,-2.32 -0.51,-3.33 -0.4,-0.76 -1.07,-1.37 -1.83,-1.77 -0.76,-0.41 -1.62,-0.62 -2.48,-0.7 -1.72,-0.16 -3.44,0.18 -5.17,0.27 -2.28,0.13 -4.58,-0.15 -6.87,-0.02 -2.85,0.18 -5.65,1 -8.51,1.01 -3.26,0.01 -6.52,-1.06 -9.74,-0.55 -1.39,0.22 -2.71,0.72 -4.03,1.16 -1.33,0.45 -2.7,0.84 -4.1,0.82 -1.59,-0.03 -3.13,-0.58 -4.72,-0.69 -0.79,-0.06 -1.6,0 -2.35,0.28 -0.74,0.28 -1.41,0.79 -1.78,1.5 -0.21,0.4 -0.31,0.86 -0.33,1.31 -0.02,0.46 0.04,0.91 0.15,1.36 0.22,0.88 0.63,1.71 0.96,2.55 1.2,3.07 1.46,6.42 2.53,9.53 z"
               style="fill:#ff6600" /><path
               id="beak_shadow_upper"
               opacity="0.3"
               fill="#000000"
               filter="url(#blur_beak_shadow_upper)"
               clip-path="url(#clip_body)"
               d="m 77.03,77.2 c 2.85,1.76 5.41,3.93 7.56,6.39 1.99,2.29 3.68,4.89 6.29,6.58 1.83,1.2 4.04,1.87 6.28,2.08 2.63,0.24 5.29,-0.15 7.83,-0.84 2.35,-0.63 4.62,-1.53 6.7,-2.71 3.97,-2.25 7.28,-5.55 11.65,-7.03 0.95,-0.33 1.94,-0.56 2.86,-0.96 0.92,-0.39 1.79,-0.99 2.23,-1.83 0.42,-0.82 0.4,-1.75 0.54,-2.64 0.15,-0.96 0.48,-1.88 0.66,-2.83 0.18,-0.95 0.2,-1.96 -0.24,-2.83 -0.37,-0.72 -1.04,-1.29 -1.81,-1.66 -0.77,-0.36 -1.64,-0.52 -2.51,-0.56 -1.72,-0.08 -3.43,0.33 -5.16,0.47 -2.28,0.19 -4.58,-0.08 -6.87,-0.01 -2.85,0.08 -5.66,0.67 -8.51,0.8 -3.25,0.14 -6.49,-0.34 -9.74,-0.44 -1.41,-0.05 -2.83,-0.03 -4.21,0.2 -1.39,0.22 -2.75,0.65 -3.92,1.37 -1.14,0.69 -2.07,1.64 -3.11,2.45 -0.52,0.41 -1.08,0.78 -1.68,1.07 -0.61,0.28 -1.28,0.48 -1.96,0.51 -0.35,0.01 -0.71,-0.01 -1.05,0.04 -0.59,0.08 -1.13,0.39 -1.47,0.83 -0.34,0.45 -0.47,1.02 -0.36,1.55 z"
               style="fill:#ff6600" /></g><path
             id="beak_base"
             fill="url(#fill_beak_base)"
             d="m 91.66,58.53 c 1.53,-1.71 2.57,-3.8 4.03,-5.56 0.73,-0.88 1.58,-1.69 2.57,-2.26 0.99,-0.57 2.15,-0.89 3.29,-0.79 1.27,0.11 2.46,0.74 3.39,1.61 0.93,0.87 1.62,1.97 2.17,3.12 0.53,1.11 0.95,2.28 1.71,3.24 0.81,1.02 1.94,1.71 2.97,2.52 0.51,0.4 1.01,0.83 1.41,1.34 0.41,0.51 0.72,1.1 0.86,1.74 0.13,0.65 0.06,1.33 -0.16,1.95 -0.23,0.62 -0.61,1.18 -1.09,1.64 -0.95,0.92 -2.25,1.42 -3.56,1.6 -2.62,0.37 -5.27,-0.41 -7.92,-0.34 -2.67,0.08 -5.29,1.02 -7.97,0.93 -1.33,-0.05 -2.69,-0.38 -3.79,-1.14 -0.55,-0.39 -1.03,-0.88 -1.38,-1.45 -0.34,-0.57 -0.55,-1.23 -0.58,-1.9 -0.02,-0.64 0.13,-1.28 0.39,-1.86 0.25,-0.59 0.61,-1.12 1.01,-1.62 0.81,-0.99 1.8,-1.81 2.65,-2.77 z"
             style="fill:#ff6600" /><g
             id="mandible_lower"
             style="fill:#ff6600"><path
               id="mandible_lower_base"
               fill="url(#fill_mandible_lower_base)"
               d="m 77.14,75.05 c 0.06,0.26 0.15,0.5 0.28,0.73 0.23,0.38 0.57,0.69 0.93,0.95 0.36,0.27 0.75,0.49 1.13,0.72 2.01,1.27 3.65,3.04 5.11,4.92 1.95,2.52 3.68,5.31 6.29,7.14 1.84,1.3 4.04,2.03 6.28,2.26 2.63,0.26 5.29,-0.16 7.83,-0.91 2.35,-0.69 4.62,-1.66 6.7,-2.95 3.97,-2.44 7.28,-6.02 11.65,-7.63 0.95,-0.35 1.94,-0.6 2.86,-1.03 0.92,-0.44 1.79,-1.08 2.23,-2 0.42,-0.88 0.4,-1.9 0.54,-2.87 0.15,-1.03 0.48,-2.03 0.66,-3.06 0.18,-1.03 0.2,-2.13 -0.24,-3.08 -0.37,-0.78 -1.04,-1.4 -1.81,-1.79 -0.77,-0.4 -1.64,-0.58 -2.51,-0.62 -1.72,-0.08 -3.43,0.36 -5.16,0.52 -2.28,0.21 -4.58,-0.09 -6.87,-0.02 -2.85,0.09 -5.66,0.73 -8.51,0.87 -3.25,0.15 -6.49,-0.35 -9.74,-0.48 -1.41,-0.06 -2.83,-0.04 -4.22,0.2 -1.39,0.23 -2.75,0.71 -3.91,1.51 -1.13,0.78 -2.03,1.84 -3.07,2.74 -0.52,0.45 -1.08,0.86 -1.7,1.16 -0.61,0.3 -1.29,0.49 -1.98,0.47 -0.35,-0.01 -0.72,-0.06 -1.05,0.04 -0.21,0.07 -0.4,0.2 -0.56,0.35 -0.16,0.16 -0.29,0.34 -0.41,0.52 -0.29,0.42 -0.54,0.87 -0.75,1.34 z"
               style="fill:#ff6600" /><path
               id="mandible_lower_glare"
               fill="#d9b30d"
               filter="url(#blur_mandible_lower_glare)"
               clip-path="url(#clip_mandible_lower)"
               d="m 89.9,78.56 c -0.33,1.37 -0.13,2.87 0.56,4.11 0.68,1.24 1.84,2.2 3.19,2.65 1.7,0.57 3.62,0.29 5.21,-0.54 0.93,-0.48 1.77,-1.16 2.3,-2.06 0.27,-0.44 0.46,-0.94 0.53,-1.46 0.06,-0.51 0.02,-1.05 -0.16,-1.54 -0.2,-0.53 -0.56,-1 -0.99,-1.37 -0.44,-0.37 -0.95,-0.64 -1.5,-0.82 -1.08,-0.36 -2.77,-0.66 -3.91,-0.68 -2.02,-0.04 -4.9,0.34 -5.23,1.71 z"
               style="fill:#ff6600" /></g><g
             id="mandible_upper"
             style="fill:#ff6600"><path
               id="mandible_upper_shadow"
               fill="#604405"
               filter="url(#blur_mandible_upper_shadow)"
               clip-path="url(#clip_mandible_lower)"
               d="m 84.31,67.86 c -1.16,0.68 -2.27,1.43 -3.36,2.2 -0.57,0.41 -1.15,0.84 -1.45,1.47 -0.21,0.44 -0.26,0.94 -0.27,1.43 0,0.5 0.03,0.99 -0.04,1.48 -0.04,0.33 -0.13,0.66 -0.14,0.99 -0.01,0.17 0,0.34 0.04,0.5 0.05,0.16 0.13,0.32 0.24,0.44 0.15,0.16 0.35,0.26 0.56,0.32 0.21,0.06 0.42,0.09 0.64,0.14 1.01,0.24 1.89,0.86 2.66,1.56 0.77,0.69 1.47,1.48 2.28,2.13 2.18,1.78 5.07,2.52 7.89,2.56 2.82,0.05 5.61,-0.54 8.36,-1.16 2.16,-0.49 4.32,-0.99 6.39,-1.76 3.2,-1.18 6.16,-2.96 8.72,-5.19 1.17,-1.01 2.26,-2.12 3.57,-2.94 1.15,-0.73 2.44,-1.21 3.62,-1.9 0.11,-0.06 0.21,-0.13 0.3,-0.2 0.1,-0.08 0.18,-0.18 0.24,-0.28 0.09,-0.19 0.09,-0.42 0.03,-0.62 -0.06,-0.2 -0.18,-0.38 -0.31,-0.55 -0.15,-0.18 -0.31,-0.34 -0.49,-0.5 -1.23,-1.05 -2.89,-1.43 -4.51,-1.56 -1.61,-0.12 -3.24,-0.03 -4.83,-0.3 -1.5,-0.25 -2.92,-0.81 -4.37,-1.27 -1.52,-0.49 -3.07,-0.87 -4.64,-1.13 -3.71,-0.61 -7.52,-0.49 -11.19,0.27 -3.49,0.73 -6.87,2.05 -9.94,3.87 z"
               style="fill:#ff6600" /><path
               id="mandible_upper_base"
               fill="url(#fill_mandible_upper_base)"
               d="m 83.94,63.95 c -1.66,1.12 -3.16,2.49 -4.43,4.04 -0.72,0.89 -1.38,1.86 -1.74,2.94 -0.29,0.86 -0.39,1.76 -0.57,2.65 -0.07,0.33 -0.15,0.66 -0.14,1 0,0.16 0.02,0.33 0.07,0.5 0.05,0.16 0.14,0.31 0.25,0.43 0.2,0.2 0.47,0.31 0.74,0.37 0.28,0.05 0.56,0.06 0.84,0.09 1.25,0.15 2.4,0.75 3.44,1.47 1.04,0.71 2,1.55 3.07,2.22 2.35,1.49 5.16,2.15 7.95,2.26 2.78,0.11 5.56,-0.31 8.3,-0.86 2.17,-0.43 4.33,-0.95 6.39,-1.76 3.16,-1.25 6.01,-3.16 8.72,-5.19 1.24,-0.92 2.46,-1.87 3.57,-2.94 0.37,-0.37 0.74,-0.74 1.14,-1.08 0.4,-0.33 0.85,-0.62 1.35,-0.78 0.76,-0.24 1.58,-0.17 2.37,-0.04 0.59,0.1 1.18,0.23 1.78,0.21 0.3,-0.02 0.6,-0.07 0.88,-0.18 0.28,-0.11 0.54,-0.28 0.73,-0.52 0.25,-0.3 0.38,-0.7 0.38,-1.09 0,-0.4 -0.12,-0.79 -0.32,-1.13 -0.4,-0.68 -1.09,-1.14 -1.81,-1.46 -0.99,-0.44 -2.06,-0.65 -3.11,-0.91 -3.23,-0.78 -6.37,-1.93 -9.34,-3.41 -1.48,-0.73 -2.92,-1.54 -4.37,-2.32 -1.5,-0.8 -3.02,-1.57 -4.64,-2.07 -3.64,-1.1 -7.6,-0.74 -11.19,0.51 -3.98,1.38 -7.58,3.84 -10.31,7.05 z"
               style="fill:#ff6600" /><path
               id="mandible_upper_glare"
               fill="#f6da4a"
               filter="url(#blur_mandible_upper_glare)"
               clip-path="url(#clip_mandible_upper)"
               d="m 109.45,64.75 c -0.2,-0.24 -0.48,-0.42 -0.78,-0.51 -0.3,-0.09 -0.62,-0.09 -0.93,-0.04 -0.62,0.11 -1.18,0.44 -1.7,0.8 -1.47,1.01 -2.77,2.26 -3.91,3.64 -1.5,1.83 -2.74,3.94 -3.16,6.27 -0.07,0.39 -0.11,0.8 -0.07,1.19 0.05,0.4 0.2,0.79 0.49,1.07 0.24,0.25 0.58,0.4 0.92,0.45 0.35,0.05 0.71,0 1.04,-0.11 0.66,-0.22 1.21,-0.69 1.74,-1.15 2.87,-2.58 5.47,-5.66 6.51,-9.38 0.1,-0.37 0.19,-0.75 0.19,-1.14 0,-0.39 -0.1,-0.78 -0.34,-1.09 z"
               style="fill:#ff6600" /><path
               id="naris_left"
               opacity="0.8"
               fill="url(#fill_naris_left)"
               filter="url(#blur_naris_left)"
               d="m 92.72,59.06 c -0.77,-0.25 -2.03,1.1 -1.62,1.79 0.11,0.19 0.46,0.43 0.7,0.3 0.35,-0.19 0.64,-0.89 1.02,-1.16 0.25,-0.18 0.2,-0.84 -0.1,-0.93 z"
               style="fill:#ff6600" /><path
               id="naris_right"
               opacity="0.8"
               fill="url(#fill_naris_right)"
               filter="url(#blur_naris_right)"
               d="m 102.56,59.42 c 0.2,0.64 1.23,0.53 1.83,0.84 0.52,0.27 0.94,0.86 1.53,0.88 0.56,0.01 1.44,-0.2 1.51,-0.76 0.09,-0.73 -0.98,-1.2 -1.67,-1.47 -0.89,-0.34 -2.03,-0.52 -2.86,-0.06 -0.19,0.11 -0.4,0.36 -0.34,0.57 z"
               style="fill:#ff6600" /></g><path
             id="beak_corner"
             fill="url(#fill_beak_corner)"
             filter="url(#blur_beak_corner)"
             clip-path="url(#clip_beak)"
             d="m 129.27,69.15 a 2.42,3.1 16.94 0 1 -2.81,3.04 2.42,3.1 16.94 0 1 -2.12,-3.04 2.42,3.1 16.94 0 1 2.81,-3.05 2.42,3.1 16.94 0 1 2.12,3.05 z"
             style="fill:#ff6600" /></g></g></g><g
       style="fill:#000000"
       id="g236"
       transform="matrix(0.09888477,0,0,0.09888477,69.320831,72.495815)"><g
         id="g4">
	<path
   d="m 338.196,146.196 -7.999,8 c -2.929,2.929 -2.929,7.678 0,10.606 1.464,1.465 3.384,2.197 5.303,2.197 1.919,0 3.839,-0.732 5.303,-2.197 l 8,-8 c 2.929,-2.929 2.928,-7.678 0,-10.606 -2.928,-2.929 -7.677,-2.928 -10.607,0 z"
   id="path1" />
	<path
   d="m 314.197,170.196 -168,168 c -2.929,2.929 -2.929,7.678 0,10.606 1.464,1.464 3.384,2.197 5.303,2.197 1.919,0 3.839,-0.732 5.303,-2.197 l 168,-168 c 2.929,-2.929 2.929,-7.678 0,-10.606 -2.928,-2.928 -7.677,-2.928 -10.606,0 z"
   id="path2-5" />
	<path
   d="m 485.286,72.095 c -5.79,-2.346 -12.382,-1.01 -16.797,3.406 l -32.876,32.876 -38.08,-10.203 -10.203,-38.08 33.552,-33.552 c 4.431,-4.431 5.758,-10.799 3.465,-16.621 -2.276,-5.779 -7.768,-9.654 -13.99,-9.872 -15.153,-0.53 -30.085,3.23 -44.376,11.177 -16.95,9.427 -30.566,24.162 -38.34,41.493 -7.68,17.122 -9.568,34.962 -5.63,53.095 L 75.692,352.132 C 74.263,352.044 72.874,352 71.5,352 32.075,352 0,384.074 0,423.5 0,462.926 32.075,495 71.5,495 c 39.425,0 71.5,-32.075 71.5,-71.5 0,-1.374 -0.044,-2.764 -0.133,-4.192 L 389.185,172.99 c 18.161,3.945 36.031,2.043 53.183,-5.669 17.329,-7.792 32.034,-21.367 41.406,-38.223 7.662,-13.78 11.436,-28.188 11.217,-42.823 -0.094,-6.262 -3.903,-11.827 -9.705,-14.18 z m -14.621,49.713 c -7.813,14.051 -20.046,25.355 -34.448,31.832 -15.477,6.959 -30.991,8.211 -47.426,3.825 -2.585,-0.689 -5.344,0.051 -7.237,1.943 L 129.792,411.169 c -1.608,1.607 -2.399,3.858 -2.152,6.118 0.242,2.216 0.36,4.248 0.36,6.212 0,31.154 -25.346,56.5 -56.5,56.5 C 40.346,479.999 15,454.654 15,423.5 15,392.346 40.346,367 71.5,367 c 1.964,0 3.996,0.118 6.212,0.36 2.259,0.245 4.51,-0.544 6.118,-2.152 L 335.591,113.447 c 1.893,-1.893 2.633,-4.65 1.943,-7.237 -4.379,-16.411 -3.139,-31.9 3.792,-47.352 6.458,-14.397 17.802,-26.658 31.943,-34.522 12.039,-6.695 23.992,-9.74 36.562,-9.295 0.166,0.005 0.416,0.014 0.558,0.377 0.114,0.289 0.013,0.39 -0.115,0.518 L 373.66,52.549 c -1.895,1.895 -2.635,4.656 -1.941,7.244 l 12.445,46.445 c 0.694,2.588 2.715,4.61 5.304,5.304 l 46.445,12.445 c 2.588,0.693 5.35,-0.047 7.244,-1.941 l 35.938,-35.938 v 0 c 0.123,-0.123 0.239,-0.24 0.554,-0.111 0.337,0.137 0.34,0.332 0.343,0.503 0.182,12.143 -2.869,23.692 -9.327,35.308 z"
   id="path3" />
	<path
   d="M 71.5,376 C 45.309,376 24,397.308 24,423.5 24,449.692 45.309,471 71.5,471 97.691,471 119,449.691 119,423.5 119,397.309 97.691,376 71.5,376 Z m 0,80 C 53.58,456 39,441.42 39,423.5 39,405.58 53.58,391 71.5,391 89.42,391 104,405.58 104,423.5 104,441.42 89.42,456 71.5,456 Z"
   id="path4" />
</g></g><path
       style="fill:#000000;stroke-width:0.535003"
       d="m 411.63028,277.03529 c -12.83018,1.27188 -24.18881,11.77333 -26.59967,24.39383 -0.21993,4.31195 -0.29192,8.68939 0.38454,12.96336 -31.31061,31.31781 -62.62151,62.63532 -93.9327,93.95255 -6.60319,-0.18149 -13.41086,1.45839 -18.35205,6.05953 -9.41661,7.78402 -11.07601,23.13907 -3.04179,32.48679 5.05259,6.52496 13.4456,10.32743 21.69792,8.87561 11.74721,-1.10095 21.10687,-12.15099 20.71255,-23.86196 -0.63993,-3.9117 4.09831,-5.59705 6.05023,-8.43584 29.19143,-29.21679 58.38282,-58.43361 87.5742,-87.65044 8.67335,1.33907 18.14625,0.52245 25.29456,-5.03342 7.71572,-5.5467 12.76451,-14.94762 12.69168,-24.4816 -0.33066,-3.76915 -5.14529,-3.47947 -6.63388,-0.61164 -4.14213,3.95934 -7.80846,8.19413 -12.22497,11.69414 -5.6453,-1.22643 -11.22559,-2.76322 -16.73555,-4.49632 -1.77984,-5.62586 -3.39257,-11.30662 -4.8516,-17.02396 4.44336,-5.24066 9.95578,-9.64792 14.09832,-15.05441 1.51582,-4.08335 -3.29005,-4.58169 -6.13179,-3.77622 z m -53.08544,85.61611 c -5.98055,5.99274 -11.985,12.01006 -17.97275,17.95917 6.67255,-6.71222 13.36296,-13.40675 20.07723,-20.07724 -0.70149,0.70603 -1.40298,1.41205 -2.10448,2.11807 z m -69.62455,54.78659 c 9.67576,-0.203 17.28273,10.4848 13.89963,19.52655 -2.78622,9.32618 -15.53298,13.32257 -23.11066,7.19119 -4.08764,-2.93167 -6.1427,-7.98247 -5.4493,-12.94561 -0.41323,-7.71612 7.28051,-14.08224 14.66033,-13.77213 z"
       id="path237"
       transform="scale(0.26458333)" /><path
       style="fill:#ff6600;stroke-width:1.34275"
       d="m 193.68673,52.183749 c -19.42344,-0.14616 -38.04746,13.456693 -42.0082,32.816124 -3.46246,25.798607 1.17097,52.057637 -1.32178,77.842897 -11.56042,17.26436 -29.44224,31.11886 -33.6973,52.5142 -4.62408,15.64204 -14.16393,29.50229 -18.224188,45.22609 0.64658,5.75611 2.660088,11.99372 -2.242292,16.66639 -5.531289,10.76437 -23.775451,0.33011 -27.358572,13.0997 -2.816294,14.90556 1.926509,31.07384 -6.194493,44.81696 -1.557506,9.74965 11.25689,11.9733 17.972421,14.39263 19.192097,5.15803 38.487374,9.96276 57.145634,16.85783 11.45535,3.50229 21.57275,-5.96496 27.23269,-14.7729 18.53835,-5.71457 38.56678,-1.74864 57.37643,0.79989 8.71044,0.90548 16.11035,5.38602 22.76908,10.68432 10.53342,6.56336 24.33384,3.89837 32.77941,-4.83602 13.01057,-13.20101 30.64086,-19.87923 45.15529,-30.96458 4.28105,-3.12221 8.86756,-10.27086 2.76942,-14.16185 -8.32452,-8.16525 -20.70242,-14.97077 -20.90969,-28.18205 -0.25461,-5.9895 -8.37894,-8.94958 -5.15859,-15.2502 5.493,-23.45342 -3.05066,-47.7332 -13.46948,-68.55641 -10.76272,-17.81222 -27.57176,-32.09367 -34.92729,-51.70907 -9.96159,-23.27428 0.50524,-51.47315 -14.14871,-73.295371 -9.20691,-14.7227 -26.04819,-24.446418 -43.53979,-23.98858 z"
       id="path5"
       transform="scale(0.26458333)" /><path
       style="fill:#ff6600;stroke-width:1.34275"
       d="m 413.91117,273.09006 c -19.82507,-0.32426 -37.56476,20.47888 -32.97347,40.04653 -30.31548,29.52057 -59.05362,60.7234 -90.58331,88.93109 -6.09343,3.89995 -14.38835,3.42251 -19.73479,9.01899 -13.43798,10.24698 -12.83604,31.99801 0.14162,42.40421 11.14254,9.96157 31.4169,8.42835 39.82099,-4.50818 4.28728,-4.63754 5.35085,-11.00584 7.12812,-16.61394 28.27827,-32.23149 60.0693,-61.22267 89.95652,-91.99686 13.88301,1.81102 28.26414,-4.37236 35.37313,-16.66376 4.01799,-6.50328 9.46698,-18.51195 0.98607,-23.69223 -8.73336,-2.85359 -13.97237,8.60711 -19.81083,12.88202 -5.57764,-1.70539 -14.01962,-1.90698 -14.14348,-9.67988 -5.09991,-8.50264 6.43766,-12.65813 10.22537,-19.20502 4.54765,-4.62725 -0.3966,-12.10091 -6.38594,-10.92297 z M 289.1585,421.771 c 8.59368,0.54048 13.81112,12.43766 6.50133,18.10616 -7.77059,8.74344 -23.66693,-4.68389 -15.26856,-13.42752 2.07058,-2.70834 5.21902,-4.90963 8.76723,-4.67864 z"
       id="path6"
       transform="scale(0.26458333)" /><path
       style="fill:#cccccc;stroke-width:1.34275"
       d="m 229.73123,29.404171 c -41.60131,0.510527 -83.30301,-0.429885 -124.83397,2.024618 -28.576357,7.692782 -54.062677,27.915722 -64.698622,55.989088 -4.56182,9.974742 -7.310659,20.377823 -5.945349,31.415673 0.06132,94.18784 -0.122416,188.39455 0.09179,282.57063 6.442246,27.84401 24.082588,53.70272 50.345333,66.10168 14.9038,8.07934 31.958158,9.66369 48.621528,9.12628 91.38703,0.69573 182.80197,0.14604 274.17658,-0.0732 28.99758,-7.40485 55.58444,-27.10496 66.77031,-55.44824 10.9009,-25.0124 6.14044,-52.92501 7.48315,-79.35401 -0.16199,-75.38435 0.59284,-150.79748 -1.22558,-226.16201 0.28229,-14.72602 -3.97653,-28.986475 -11.81771,-41.354133 C 455.70745,51.517649 431.80804,35.603774 406.26115,30.988199 347.45542,28.961087 288.56568,29.534963 229.73123,29.404171 Z m -31.35011,25.095301 c 24.07232,0.96243 44.61182,23.036068 44.92714,47.020388 2.20684,22.41055 1.18583,47.08183 16.04418,65.73093 13.77665,18.70949 29.4944,36.77675 36.04732,59.60798 6.78208,17.05032 0.0543,36.14163 5.69926,53.29122 3.47822,5.68006 2.10243,13.3431 7.60019,18.16388 5.38687,7.57724 14.47546,12.3867 18.42875,20.71036 -5.14384,9.99846 -17.12631,14.18997 -25.8611,20.47697 -12.88321,6.66052 -22.61641,18.33241 -35.86878,24.17217 -11.01645,3.75901 -21.06353,-3.04884 -30.21716,-8.57316 -19.69279,-6.86271 -41.26136,-9.11697 -61.97378,-6.81342 -13.20195,0.79612 -18.16204,18.2689 -32.00575,17.21713 -21.69084,-6.61063 -43.635525,-12.68036 -65.261904,-19.58016 -5.593546,-1.78265 -14.520618,-5.70514 -10.401649,-13.18877 6.045114,-14.29279 1.392563,-30.6768 6.800305,-44.92711 7.363638,-6.02963 20.907543,-0.69701 25.947634,-10.83644 3.715914,-10.45689 1.998894,-22.32686 7.812374,-32.2753 9.94179,-19.76595 13.68767,-42.76551 28.69857,-59.60432 8.28778,-10.38773 18.99041,-21.06059 17.82593,-35.52183 1.12676,-24.22179 -4.27592,-49.28232 3.6034,-72.747266 6.62006,-14.984144 23.22192,-23.538837 39.30959,-22.28916 1.58601,-0.0337 1.23674,-0.03317 2.84548,-0.03409 z M 414.21277,274.61114 c 5.22192,-0.0316 8.23004,6.10471 3.49325,9.33108 -3.45102,6.06257 -14.17657,11.2443 -9.55662,19.37811 2.57491,9.40352 15.72996,13.85252 22.21049,5.67786 3.5976,-3.53148 10.21583,-11.32702 15.04826,-5.4497 4.58778,9.45885 -3.63566,19.7888 -9.83723,26.51674 -7.55722,7.7806 -18.83746,8.44485 -28.76951,9.96311 -30.36141,30.35751 -62.88638,58.92741 -89.70738,92.57908 -4.29949,7.7398 -6.4854,17.40877 -15.05613,21.72793 -15.3675,10.7757 -38.35346,-1.65925 -39.51415,-19.97868 -1.49193,-13.06934 8.72087,-25.67107 21.69239,-27.98788 14.87244,-7.06323 24.76945,-21.28314 36.99513,-31.8701 20.25501,-20.36214 41.33358,-40.26874 60.52894,-61.45914 -1.88211,-18.80667 12.64453,-38.54254 32.47256,-38.42841 z"
       id="path7"
       transform="scale(0.26458333)" /><path
       style="fill:#ff7f2a;stroke-width:1.34275"
       d="M 164.88838,-1.7885876 C 138.20681,-0.9560322 111.23,-3.2002308 84.747983,0.63612299 64.36459,4.3287066 44.827343,13.397789 30.715452,28.874413 14.30367,44.006287 3.4080281,64.89105 -0.66437194,86.602253 -0.54281367,195.76418 -1.9904114,304.9405 -0.55933745,414.09376 -0.1729815,466.8234 48.2659,514.3874 101.24445,512.40583 c 104.99463,1.60957 210.03813,1.82832 315.02867,-0.11884 42.91483,-1.0852 81.72226,-33.76612 92.82658,-74.83831 5.71253,-21.46591 2.61581,-44.08945 3.70333,-66.04127 C 512.66899,278.81766 513.66327,186.2083 512.12614,93.630727 510.41422,51.13324 477.10886,14.251809 437.16019,2.3760416 417.93817,-2.9675532 397.53382,-0.07802783 377.83008,-1.222044 306.85079,-1.6443535 235.86895,-1.8604137 164.88838,-1.7885876 Z m 73.75956,33.0836266 c 56.43351,0.368965 113.30159,-0.386844 169.45688,1.809568 24.91945,4.581666 47.15812,21.618159 59.95178,43.308997 12.63404,19.05665 10.54363,42.958216 11.36453,64.771906 0.72382,85.55398 0.36781,171.11394 0.62583,256.67034 -5.99959,28.97553 -23.82068,55.85024 -50.88297,68.8711 -10.45731,5.28752 -21.5656,9.4849 -33.57385,7.85814 -92.78397,0.0514 -185.65679,2.01457 -278.37733,-0.49397 -34.531662,-0.1083 -64.134727,-26.81664 -76.742408,-57.56149 -6.849189,-12.68979 -2.300623,-27.8051 -3.710816,-41.65234 -0.08698,-90.46215 -1.582506,-181.0392 -0.1355,-271.43294 6.909647,-32.192619 32.289088,-58.921254 63.121159,-68.94356 12.240965,-4.600041 26.046105,-1.275579 38.946605,-2.534243 33.31694,-0.464457 66.63593,-0.680527 99.95609,-0.671508 z"
       id="path8"
       transform="scale(0.26458333)" /><path
       style="fill:#cccccc;stroke-width:1.34275"
       d="m 288.46614,420.7141 c -8.71996,0.009 -15.83142,11.62365 -8.74625,18.32909 6.06172,8.97016 21.87494,3.46712 20.83364,-7.25925 -0.9089,-5.63029 -6.08585,-11.23596 -12.08739,-11.06984 z"
       id="path9"
       transform="scale(0.26458333)" /><text
       xml:space="preserve"
       style="font-size:70.5556px;text-align:start;writing-mode:lr-tb;direction:ltr;text-anchor:start;fill:#ffffff;stroke-width:0.264583"
       x="154.4736"
       y="85.795601"
       id="text9"><tspan
         id="tspan9"
         style="font-style:normal;font-variant:normal;font-weight:normal;font-stretch:normal;font-size:70.5556px;font-family:Ubuntu;-inkscape-font-specification:Ubuntu;fill:#ffffff;stroke-width:0.264583"
         x="154.4736"
         y="85.795601">gRecover</tspan></text></g></svg>
